<svg xmlns="http://www.w3.org/2000/svg" viewBox="0 0 1366 768"><defs><style>.cls-1,.cls-22,.cls-3{fill:#cc8736;}.cls-2,.cls-20,.cls-21,.cls-23,.cls-24,.cls-32,.cls-36,.cls-45,.cls-47,.cls-6{fill:none;}.cls-2,.cls-20,.cls-21,.cls-22,.cls-23,.cls-25,.cls-26,.cls-27,.cls-3,.cls-35,.cls-42{stroke:#5d2e1b;}.cls-17,.cls-2,.cls-20,.cls-21,.cls-22,.cls-23,.cls-24,.cls-25,.cls-26,.cls-27,.cls-28,.cls-3,.cls-31,.cls-32,.cls-35,.cls-36,.cls-37,.cls-38,.cls-39,.cls-40,.cls-42,.cls-44,.cls-45,.cls-47,.cls-6{stroke-miterlimit:10;}.cls-2,.cls-3,.cls-32,.cls-42,.cls-6{stroke-width:3px;}.cls-4{fill:#ffc6a7;}.cls-5{fill:#f2f2f2;}.cls-44,.cls-45,.cls-6{stroke:#000;}.cls-7{fill:#020300;}.cls-8{fill:#d39b7f;}.cls-9{fill:#070606;}.cls-10{fill:#e6e6e6;}.cls-11{fill:#1f1f1f;}.cls-12{fill:#8e4625;opacity:0.12;}.cls-13{fill:#feffff;}.cls-14{fill:#070403;}.cls-15{fill:#c1b59c;}.cls-16{fill:#026d3b;}.cls-17{fill:#c6b7a0;stroke:#6c6e5c;stroke-width:6px;}.cls-18{fill:#c4892e;}.cls-19{font-size:12px;}.cls-19,.cls-48{font-family:MyriadPro-Regular, Myriad Pro;}.cls-20,.cls-28,.cls-47{stroke-width:2px;}.cls-21,.cls-22,.cls-27{stroke-width:4px;}.cls-23{stroke-width:15px;}.cls-24{stroke:#cc8736;stroke-width:11px;}.cls-25{fill:#ad6538;}.cls-25,.cls-26{stroke-width:5px;}.cls-26,.cls-42{fill:#5d2e1b;}.cls-27{fill:#b16c32;}.cls-28{fill:#e0ddd0;stroke:#a95b26;}.cls-29{fill:#0f0001;}.cls-30{fill:#ff0c24;}.cls-31{fill:#f15a29;stroke:#ff0c24;}.cls-32{stroke:#ffd0cd;}.cls-33{fill:#c4262f;}.cls-34,.cls-35{fill:#583334;}.cls-36{stroke:#fe9f1a;}.cls-37,.cls-38,.cls-39,.cls-40{fill:#fd0102;}.cls-37{stroke:#3a3835;}.cls-38{stroke:#f7f6f5;}.cls-39{stroke:#ea8d13;}.cls-40{stroke:#1236cc;}.cls-41{fill:#102e9b;opacity:0.22;}.cls-43,.cls-44{fill:#b10003;}.cls-46{fill:#030802;}.cls-47{stroke:#fff;}.cls-48{font-size:10.43px;fill:#ebe9f4;letter-spacing:0.01em;}.cls-49{letter-spacing:0em;}.cls-50{letter-spacing:0em;}</style></defs><g id="main_house" data-name="main house"><rect class="cls-1" x="1006.1" y="472.23" width="139.92" height="23.92"/><rect class="cls-2" x="1006.1" y="472.23" width="139.92" height="23.92"/><polyline class="cls-3" points="1016.9 616.49 1023.5 496.16 1042.43 497.19 1035.83 617.52"/><polyline class="cls-3" points="1118.57 617.53 1111.75 497.22 1130.68 496.14 1137.49 616.46"/><rect class="cls-3" x="1038.59" y="561.57" width="76.69" height="11.32"/><path class="cls-4" d="M786.5,319.83c2-2.41,4.38-6.12,3.54-9.84-.95-4.18-5.25-5.12-10.23-9.84A34.64,34.64,0,0,1,770.36,284c-1.32-5.23,0-11.3,2.76-23.22s4.17-17.94,7.48-20.47c5-3.81,11.33-2.85,22.43-1.18,9.28,1.4,36.1,10.31,27.15,7.48,2.81,2.8,3.13,6.93,1.18,9.44s-5.58,2.39-5.9,2.37a17.38,17.38,0,0,1,7.08,5.51c5,6.71,3.07,14.74,2.76,15.92,0-1.14-.09-6.05,3.54-9.63a11.38,11.38,0,0,1,3.54-2.36c.68.17,5.77,1.51,7.32,5.78,1.83,5.06-2.48,11-6.93,12.72-3.88,1.48-6.16-.92-8.26.78-2.58,2.1-.86,7.15,0,16.14a97.77,97.77,0,0,1,.34,13.89,27.47,27.47,0,0,1-10.57,18.38,26.79,26.79,0,0,1-16.53,5.11c-7.17,2.68-15,.5-19.28-5.11C783.28,328.71,786.29,320.36,786.5,319.83Z"/><path class="cls-5" d="M776.54,245.42l5.12-26.76A57.41,57.41,0,0,1,850.13,236l-7.08,25.58-16.92-9.84A69.59,69.59,0,0,0,797,243.45,68.45,68.45,0,0,0,776.54,245.42Z"/><path d="M832,255.11l11.09,6.44-.67,6.33-7.08,12c.31-1.18,2.27-9.21-2.76-15.92a17.38,17.38,0,0,0-7.08-5.51Z"/><path class="cls-6" d="M776.69,259.08a5,5,0,0,1,9.76-1.09"/><path class="cls-6" d="M808.76,257.16a5,5,0,0,1,9.45,2.82"/><ellipse class="cls-7" cx="813.49" cy="271.7" rx="3.54" ry="5.27"/><ellipse class="cls-7" cx="782.93" cy="270.21" rx="3.52" ry="5.25"/><ellipse class="cls-8" cx="794.21" cy="277.78" rx="3.54" ry="1.05"/><path class="cls-9" d="M796.94,282.64a26.13,26.13,0,0,1,10.36.37,25.6,25.6,0,0,1,9.14,4.24,24.73,24.73,0,0,0-9.38-2.76,23.73,23.73,0,0,0-9.43,1.07Z"/><path class="cls-9" d="M791.85,285.63a23.72,23.72,0,0,0-9.47.51,24.79,24.79,0,0,0-8.79,4.28,25.55,25.55,0,0,1,8.3-5.7,26.12,26.12,0,0,1,10.16-2.09Z"/><path class="cls-8" d="M784.1,290.16c-.13.4,4.57,3.53,10.32,3.36s11.81-3.81,12.08-3.9h0a50.69,50.69,0,0,1-12.73,2C787.87,291.59,784.2,289.81,784.1,290.16Z"/><path class="cls-5" d="M877.27,496.25l6.4-163.65-40.76-15a228.71,228.71,0,0,1-44.64,79.76,208.77,208.77,0,0,1-11.81-79.76c-2.2.78-4.45,1.6-6.75,2.48A282.94,282.94,0,0,0,713,356.57Q702,437.65,691.12,518.72l185.39-7.12Z"/><path class="cls-10" d="M843.7,317.71a153,153,0,0,1-15.52,48.39,150.66,150.66,0,0,1-29.47,39.42L824,488.83l-13,2.85c-4.23-11.62-10.16-28.28-16.84-48.52C785.16,416,780.58,402,777,385.72a344,344,0,0,1-7.84-60.12l14.17-5.88a250.7,250.7,0,0,0,12.26,74.21,178.43,178.43,0,0,0,40-77.42Z"/><path class="cls-11" d="M786.46,317.62c2.41,10.5,10.2,18.57,19.59,20.33,12.38,2.31,26-6.64,29.49-21.44a112.08,112.08,0,0,1-40.26,77A84.7,84.7,0,0,1,781,346.85,82.41,82.41,0,0,1,786.46,317.62Z"/><path class="cls-12" d="M831.27,228.17,848.64,242c-1.67,6.08-2.85,10.32-3.39,12.22-2.59,9.31-3.39,12-1.8,14.15s4.37,1.92,5.91,5.06a7.92,7.92,0,0,1,.75,3.94c-.28,4.59-4.63,8.67-9.07,9.88-3.72,1-4.88-.69-6.53.56-1.47,1.11-1.73,3.37.25,19.25a37.11,37.11,0,0,1,.35,10.24,31.16,31.16,0,0,1-2,7.59,8.18,8.18,0,0,1-6.37-15l-8.54-6.75a32.17,32.17,0,0,0,5.91-6.75c10-15.36,3.12-34.57,1.69-38.34Q828.55,243.13,831.27,228.17Z"/><ellipse class="cls-13" cx="783.24" cy="270.87" rx="0.94" ry="1.41"/><ellipse class="cls-13" cx="813.21" cy="271.98" rx="1.41" ry="0.94" transform="translate(493.89 1067.79) rotate(-86.63)"/><circle class="cls-14" cx="794.42" cy="425.78" r="5.26"/><path class="cls-15" d="M666.76,326.83a25,25,0,0,1,6.82-5.15,18.31,18.31,0,0,1,8.36-2,20.1,20.1,0,0,1,4.32.62,33.17,33.17,0,0,0,4.12.85,12.1,12.1,0,0,0,7.73-1.85,19,19,0,0,0,3.17-2.61,25.19,25.19,0,0,1,3.3-2.95,7.94,7.94,0,0,1,4.56-1.42,7.33,7.33,0,0,1,2.44.36,14.34,14.34,0,0,1,2.11.94,23.38,23.38,0,0,0,15.79,1.75l.56,2.95a26,26,0,0,1-17.42-2.72,6.76,6.76,0,0,0-3.51-1.22,6,6,0,0,0-3.51.94,23.53,23.53,0,0,0-3.17,2.6,20.06,20.06,0,0,1-3.55,2.66,13.8,13.8,0,0,1-4.19,1.57,12.39,12.39,0,0,1-4.46.12,34.56,34.56,0,0,1-4.21-1.07,20,20,0,0,0-4.1-.77,17.84,17.84,0,0,0-8.18,1.6A24.58,24.58,0,0,0,666.76,326.83Z"/><path class="cls-15" d="M803.35,323.52a18.31,18.31,0,0,1-9.51,2.33,13.89,13.89,0,0,1-4.92-1.08,20.73,20.73,0,0,0-4.4-1.55,8.12,8.12,0,0,0-4.3.38,15.46,15.46,0,0,0-3.84,2.43,46.16,46.16,0,0,1-4,3,18.74,18.74,0,0,1-4.66,2.18,19.45,19.45,0,0,1-10.24.28c-3.33-.73-6.38-2.25-9.25-3.14a4.88,4.88,0,0,0-3.64-.08,4.41,4.41,0,0,0-2,2.84,17.35,17.35,0,0,0-.61,4.38c-.06,1.55,0,3.13,0,4.75l-1.39.23a24.34,24.34,0,0,1-1.06-4.89,15.3,15.3,0,0,1,.26-5.24,7.84,7.84,0,0,1,1.16-2.67,6,6,0,0,1,2.37-2.07,6.07,6.07,0,0,1,3.09-.56,11.8,11.8,0,0,1,2.72.56c1.66.54,3.13,1.22,4.61,1.81a32.77,32.77,0,0,0,4.41,1.5,16.81,16.81,0,0,0,8.93,0,18.83,18.83,0,0,0,4.16-1.78,46.31,46.31,0,0,0,3.91-2.69,17.3,17.3,0,0,1,4.46-2.53,9.88,9.88,0,0,1,5.25-.25,19.68,19.68,0,0,1,4.64,1.88,12.52,12.52,0,0,0,4.44,1.27,18.47,18.47,0,0,0,9.25-1.61Z"/><path class="cls-15" d="M668.53,320.08a37.26,37.26,0,0,1,20.06-5.64,43.43,43.43,0,0,1,10.51,1.38,38.87,38.87,0,0,1,9.81,4.14c3.06,1.74,6,3.75,9.19,4.27a14.16,14.16,0,0,0,2.43.21c.82-.07,1.65-.09,2.45-.24a11.47,11.47,0,0,0,2.3-.68c.75-.32,1.53-.71,2.36-1.09a41.68,41.68,0,0,1,10.39-2.9,62,62,0,0,1,10.72-.78l-.1,3a58.45,58.45,0,0,0-10.24.38,39.4,39.4,0,0,0-9.88,2.37c-.79.32-1.58.69-2.46,1a13.17,13.17,0,0,1-2.76.71,23.45,23.45,0,0,1-2.78.18,16.48,16.48,0,0,1-2.79-.34,17.67,17.67,0,0,1-5.11-2c-1.56-.9-3-1.88-4.49-2.79a38.64,38.64,0,0,0-19.57-6.06A36.88,36.88,0,0,0,668.53,320.08Z"/><path class="cls-16" d="M391.52,609.32c.26,0-1.93-9.06,2.73-18.05A29.26,29.26,0,0,1,405.14,580a26,26,0,0,0-6.81,12c-1.67,6.91-.26,14.8.44,14.82.09,0,.16-.12.19-.18a128.37,128.37,0,0,0,5.5-11.91c2.85-7.13,10-11.35,9.62-11.74,0,0-.05,0-.09,0-1.14.12-5.79,6-8.17,16.52-1.06,4.73-.38,4.63-1.34,7.07-2.58,6.59-8.66,10-10.57,11-6.08,3.07-12,2.43-23.49,1a131.44,131.44,0,0,1-17.68-3.41,33.8,33.8,0,0,0-23.86-8.51,65.35,65.35,0,0,1,8.51-.34,64.65,64.65,0,0,1,18,3.07,21.33,21.33,0,0,0-9.15-8.51,21.06,21.06,0,0,0-9.54-2,17.64,17.64,0,0,1,21.17,3.41,85.54,85.54,0,0,0-21.51-27.08,66,66,0,0,1,31,32.18A78.89,78.89,0,0,0,352.71,580c-12.18-14.57-27.16-21-26.89-21.45s12.25,5.64,27.52,16.09c9.33,6.39,16.64,12.2,21.5,16.25a65.72,65.72,0,0,1,8.51-29.27c5.44-9.37,13.65-17.75,15.32-16.68,1.41.9-3,7.88-6.13,18.38C385.22,587.76,391.12,609.33,391.52,609.32Z"/><rect class="cls-17" x="635.68" y="355.19" width="110.89" height="39.93"/><rect class="cls-18" x="629.74" y="348.77" width="122.78" height="10.05" rx="1.13"/><rect class="cls-18" x="686.04" y="336.17" width="10.16" height="19.06" rx="3.51"/><text class="cls-19" transform="translate(504.93 327.99)">c6b7a0</text><rect class="cls-17" x="770.54" y="365.31" width="81.56" height="29.37"/><rect class="cls-18" x="766.16" y="360.59" width="90.3" height="7.39" rx="1.13"/><rect class="cls-18" x="807.58" y="351.32" width="7.47" height="14.02" rx="3.51"/><polygon class="cls-3" points="447.36 153.65 415.7 158.76 342.97 170.5 254.34 184.8 251.28 166.42 398.36 145.55 402.43 144.97 447.36 153.65"/><polygon class="cls-3" points="1084.23 168.46 1081.16 184.8 995.71 170.5 925.57 158.76 885.84 152.11 932.31 144.97 933.65 145.18 1084.23 168.46"/><line class="cls-20" x1="588.46" y1="84.72" x2="731.16" y2="84.72"/><path class="cls-20" d="M885.84,152.11l39.73,6.65H415.7l31.66-5.11L402.43,145l-4.07.58c.24-.7.48-1.39.71-2.09l155.68.49,30.13-1L735,144l31.15,1H932.31Z"/><polyline class="cls-20" points="933.65 144.97 933.65 145.18 933.65 158.76 925.57 158.76"/><path class="cls-20" d="M415.7,158.76H393.9q2.24-6.6,4.46-13.21"/><path class="cls-3" d="M933.65,145v13.79H393.9s18.41-54.46,25-74H566L554.75,144"/><polygon class="cls-3" points="588.46 81.14 585.45 133.17 584.88 142.93 554.75 143.95 557.41 131.39 568.03 81.14 588.46 81.14"/><line class="cls-3" x1="585.45" y1="133.18" x2="557.41" y2="131.4"/><polygon class="cls-3" points="766.16 144.97 735.01 143.95 734.31 133.17 731.15 84.72 730.92 81.14 752.88 81.14 753.63 84.72 766.16 144.97"/><line class="cls-20" x1="763.52" y1="133.18" x2="734.31" y2="133.18"/><path class="cls-3" d="M933.65,145H766.16L753.63,84.72c2.32-1,153,0,153,0Z"/><polyline class="cls-20" points="588.46 81.14 585.45 133.17 584.88 142.93"/><line class="cls-21" x1="342.97" y1="170.5" x2="447.37" y2="286.93"/><line class="cls-21" x1="424.29" y1="158.76" x2="456.46" y2="304.55"/><line class="cls-21" x1="907.69" y1="159.19" x2="876.89" y2="304.13"/><path class="cls-22" d="M882.5,277.74c.83-2.3,113.21-107.24,113.21-107.24"/><line class="cls-23" x1="870.11" y1="157.2" x2="870.11" y2="398.29"/><line class="cls-24" x1="883.67" y1="157.2" x2="877.23" y2="398.29"/><line class="cls-23" x1="449.68" y1="157.2" x2="449.68" y2="398.29"/><line class="cls-24" x1="463.24" y1="157.2" x2="456.8" y2="398.29"/><polygon class="cls-3" points="400.6 142.78 932.31 144.37 932.31 158.92 395.46 158.92 400.6 142.78"/><polygon class="cls-3" points="588.46 84.72 731.15 84.72 735.01 143.95 584.88 142.93 588.46 84.72"/><rect class="cls-25" x="334.3" y="400.27" width="706.21" height="23"/><rect class="cls-3" x="415.7" y="425.26" width="499.56" height="183.83"/><rect class="cls-26" x="367.61" y="609.09" width="586.72" height="13.33"/><rect class="cls-27" x="571.43" y="425.26" width="20.6" height="183.83"/><rect class="cls-27" x="743.33" y="425.26" width="20.6" height="183.83"/><rect class="cls-27" x="396.13" y="507.37" width="535.29" height="17.62"/><rect class="cls-28" x="468.25" y="315.6" width="41.19" height="11.23"/><path class="cls-28" d="M468.25,371.26h41.19c.2.72,2.87,10.71-4.09,18.72-6.36,7.33-15.47,6.88-16.51,6.81-1.22.09-9.56.6-15.83-5.79A20.17,20.17,0,0,1,468.25,371.26Z"/><rect class="cls-28" x="468.25" y="326.83" width="41.19" height="11.23"/><rect class="cls-28" x="468.25" y="360.02" width="41.19" height="11.23"/><rect class="cls-28" x="468.17" y="348.79" width="41.19" height="11.23"/><rect class="cls-28" x="468.25" y="337.56" width="41.19" height="11.23"/><rect class="cls-28" x="501.43" y="315.6" width="41.19" height="11.23"/><path class="cls-28" d="M501.43,371.26h41.19c.21.72,2.87,10.71-4.09,18.72-6.36,7.33-15.47,6.88-16.51,6.81-1.21.09-9.56.6-15.83-5.79A20.17,20.17,0,0,1,501.43,371.26Z"/><rect class="cls-28" x="501.43" y="326.83" width="41.19" height="11.23"/><rect class="cls-28" x="501.43" y="360.02" width="41.19" height="11.23"/><rect class="cls-28" x="501.35" y="348.79" width="41.19" height="11.23"/><rect class="cls-28" x="501.43" y="337.56" width="41.19" height="11.23"/><rect class="cls-28" x="501.43" y="304.36" width="41.19" height="11.23"/><path class="cls-29" d="M558.36,322.52v17.6a4.49,4.49,0,0,1-1.24,3.08L550.58,350a4.43,4.43,0,0,0-1.24,3.08v39.73a4.44,4.44,0,0,0,4.44,4.44H571a4.44,4.44,0,0,0,4.44-4.53l-.9-43.76a4.43,4.43,0,0,0-1.25-3l-4.07-4.18a4.42,4.42,0,0,1-1.26-2.89l-.75-16.55a4.43,4.43,0,0,0-4.43-4.23h0A4.44,4.44,0,0,0,558.36,322.52Z"/><ellipse class="cls-30" cx="562.4" cy="319.5" rx="5.7" ry="2.42"/><path class="cls-29" d="M582.89,322.52v17.6a5,5,0,0,1-1,3.08L576.48,350a5,5,0,0,0-1,3.08v39.73c0,2.45,1.64,4.44,3.66,4.44h14.21c2,0,3.7-2.05,3.66-4.53l-.74-43.76a5,5,0,0,0-1-3l-3.36-4.18a4.94,4.94,0,0,1-1-2.89l-.62-16.55c-.09-2.37-1.7-4.23-3.66-4.23h0C584.53,318.08,582.89,320.06,582.89,322.52Z"/><rect class="cls-31" x="585.07" y="312.82" width="3.66" height="11.53"/><polygon class="cls-31" points="590.18 331.44 589.35 331.44 582.86 331.44 582.86 318.97 590.18 318.97 590.18 331.44"/><polyline class="cls-32" points="594.55 396.16 593.7 348.41 589.5 344.07 588.73 331.44"/><path class="cls-33" d="M552.33,346.26c0,1.7-1.28,9.35-1.28,9.35l-3.57,3.07V394l14.55.36V360.47l-4.85-4.09-.26-10.12Z"/><rect class="cls-34" x="552.94" y="338" width="3.62" height="8.26"/><rect class="cls-35" x="554.45" y="335.17" width="0.6" height="4.47"/><polyline class="cls-36" points="556.92 346.26 557.18 356.38 562.03 360.47 562.03 394.31"/><path class="cls-33" d="M567.84,346.26c0,1.7-1.27,9.35-1.27,9.35L563,358.68V394l14.56.36V360.47l-4.85-4.09-.26-10.12Z"/><rect class="cls-34" x="568.46" y="338" width="3.62" height="8.26"/><rect class="cls-35" x="569.97" y="335.17" width="0.6" height="4.47"/><polyline class="cls-36" points="572.44 346.26 572.7 356.38 577.55 360.47 577.55 394.31"/><rect class="cls-37" x="406.99" y="331.24" height="31.61"/><rect class="cls-37" x="411.5" y="322.21" height="31.61"/><rect class="cls-38" x="409.25" y="326.72" height="31.61"/><rect class="cls-39" x="416.02" y="326.72" height="31.61"/><rect class="cls-37" x="416.02" y="331.24" height="31.61"/><rect class="cls-37" x="420.53" y="331.24" height="31.61"/><rect class="cls-38" x="418.28" y="331.24" height="31.61"/><rect class="cls-39" x="422.79" y="331.24" height="31.61"/><rect class="cls-37" x="425.05" y="328.98" height="31.61"/><rect class="cls-40" x="413.76" y="328.98" height="31.61"/><polyline class="cls-37" points="432.29 344.68 431.15 398.97 399.54 398.81 400.68 344.68"/><rect class="cls-41" x="399.12" y="343.66" width="15.83" height="54.29"/><rect class="cls-37" x="906.55" y="333.15" height="31.61"/><rect class="cls-37" x="911.07" y="324.12" height="31.61"/><rect class="cls-38" x="908.81" y="328.64" height="31.61"/><rect class="cls-39" x="915.58" y="328.64" height="31.61"/><rect class="cls-37" x="915.58" y="333.15" height="31.61"/><rect class="cls-37" x="920.1" y="333.15" height="31.61"/><rect class="cls-38" x="917.84" y="333.15" height="31.61"/><rect class="cls-39" x="922.36" y="333.15" height="31.61"/><rect class="cls-37" x="924.61" y="330.89" height="31.61"/><rect class="cls-40" x="913.33" y="330.89" height="31.61"/><polyline class="cls-37" points="931.85 346.59 930.71 400.89 899.1 400.72 900.24 346.59"/><rect class="cls-41" x="898.68" y="345.57" width="15.83" height="54.29"/><circle class="cls-42" cx="254.98" cy="224.39" r="8.09"/><ellipse class="cls-43" cx="255.75" cy="283.83" rx="34.78" ry="56.61"/><path class="cls-44" d="M230.69,248.54a0,0,0,0,0,0,0c.08.5,12.5-2.72,24.93-2.75,14.06,0,26.73,4,26.83,3.48,0-.07-.19-.17-.36-.24"/><path class="cls-44" d="M226.41,262.22v0c.1.5,14.71-2.71,29.33-2.75,16.55,0,31.44,4,31.56,3.48,0-.07-.22-.17-.42-.24"/><path class="cls-44" d="M224.8,274.25a.07.07,0,0,0,0,.06c.1.92,15.49-5.05,30.88-5.11,17.43-.07,33.11,7.44,33.24,6.46,0-.13-.23-.31-.45-.45"/><path class="cls-45" d="M223.18,283.59s0,0,0,0c.11.49,16.27-2.72,32.45-2.75,18.3,0,34.77,4,34.91,3.47,0-.06-.25-.16-.47-.24"/><path class="cls-45" d="M224.06,291.68s0,0,0,0c.1.5,15.67-2.71,31.24-2.75,17.62,0,33.49,4,33.62,3.48,0-.07-.24-.17-.45-.24"/><path class="cls-45" d="M288.93,298.45v0c-.1-.5-16.11,2.42-32.08,2.15-18.06-.3-34.25-4.64-34.39-4.12,0,.07.24.18.46.26"/><path class="cls-45" d="M287.31,306.77v0c-.09-.5-15.23,2.44-30.32,2.19-17.07-.28-32.37-4.61-32.5-4.08,0,.06.22.17.43.25"/><path class="cls-45" d="M275.93,329.23a0,0,0,0,0,0,0c-.06-.5-9.82,2.53-19.53,2.38-11-.16-20.79-4.39-20.88-3.86,0,.06.14.17.27.25"/><path class="cls-45" d="M282.46,318v0c-.08-.49-13,2.48-25.77,2.28-14.51-.24-27.49-4.52-27.61-4,0,.06.19.17.37.25"/><path class="cls-44" d="M237.15,238.37v0c.06.5,9.38-2.71,18.7-2.75,10.55,0,20,4,20.12,3.48,0-.07-.14-.17-.27-.24"/><rect class="cls-46" x="244.43" y="224.79" width="21.03" height="6.47"/><line class="cls-47" x1="239.78" y1="240.96" x2="268.03" y2="240.96"/><path class="cls-47" d="M235.82,249.59c31.41-1.46,38.47.09,38.73,1.88.33,2.22-9.7,5.52-12.94,6.47a51.46,51.46,0,0,1-21,1.62"/><line class="cls-47" x1="254.4" y1="265.03" x2="255.19" y2="281.43"/><path class="cls-47" d="M236.65,302.61a42,42,0,0,0,21.73-5.85A41.32,41.32,0,0,0,270,286.4"/><line class="cls-47" x1="240.59" y1="290.29" x2="271.34" y2="298.43"/><path class="cls-47" d="M232.5,308.08a19,19,0,0,1,6.47,0,19.37,19.37,0,0,1,9.7,4.86"/><path class="cls-47" d="M234.12,319.41a69.37,69.37,0,0,0,39.83-9"/><text class="cls-48" transform="translate(239.22 333.41)">R<tspan class="cls-49" x="5.67" y="0">A</tspan><tspan class="cls-50" x="12.01" y="0">MEN</tspan></text><path class="cls-2" d="M255.78,220.22A61,61,0,0,0,284.05,210c19.87-13.8,23.85-36,37.08-36.22,2.95-.05,7.62,1,13.49,7.29,21.27,21.59,36.48,24.16,46.23,22.81,17.35-2.41,25.3-18.33,43.91-18,12,.19,21.49,7,27.11,11.92"/><line class="cls-20" x1="254.34" y1="184.8" x2="254.8" y2="199.45"/><rect class="cls-42" x="251.88" y="206.22" width="5.11" height="12.26"/><circle class="cls-42" cx="254.57" cy="204.22" r="5.53"/></g></svg>