<svg id="Layer_1" data-name="Layer 1" xmlns="http://www.w3.org/2000/svg" viewBox="0 0 509.99 634.28"><defs><style>.cls-1{fill:none;}.cls-1,.cls-2,.cls-3,.cls-4{stroke:#231f20;stroke-miterlimit:10;stroke-width:0.1px;}.cls-2{fill:#231f20;}.cls-3{fill:#ed1c24;}.cls-4{fill:#fff200;}</style></defs><path class="cls-1" d="M529.27,222.75C510,235,493,248,474,262c-12,8-24,11-35.21,18.62" transform="translate(-29.95 -29.95)"/><path class="cls-1" d="M455.87,171.81c-21.49-3-42.86-6.73-64.39-9.45-10.6-1.33-21.23-2.41-31.9-3-4.92-.27-10.18-1.13-15.08-.61s-9.32,1.45-14.14,1.72c-20.84,1.15-41,3.57-61,9.72-9.64,3-19,6.82-28.71,9.6-5,1.43-10.19,1.91-15,4-4.46,1.91-8.71,4.78-12.85,7.33-19.27,11.85-37.11,25.83-55.86,38.46.92-.34,1.84-.67,2.74-1.05a18.2,18.2,0,0,0-2.74,1.05c18.72-8,37.85-14.91,57.13-21.38s38.59-12.92,58.38-17.6,39.81-6.57,60.05-8.32c20.83-1.79,41.68-3.32,62.57-4.17,23.63-1,47.31-1,70.92.32" transform="translate(-29.95 -29.95)"/><path class="cls-1" d="M129.34,245.89C136,228,136,208,145,191a107.08,107.08,0,0,0,19-18c7-7,14-12,21-19a20.92,20.92,0,0,1,6-4c5-2,9-4,14-6,29-16,60-27,91-38,15-1,31-3,46.1-4.84" transform="translate(-29.95 -29.95)"/><polyline class="cls-1" points="126.97 199.6 68.75 232.28 28.92 263.94 7.48 302.75 16.67 312.96 67.22 312.96 106.54 305.82"/><path class="cls-1" d="M243.38,234.66l-18.72,27.57L213.77,295.6,212.06,330l-8.17-13.62v39.15l-19.06-32.34-13.62-3.4-6.12,16.34,9.87,19.4S173.6,361,188.57,365l15,4.09L223,381.38l18.72,10.9,29.62,10.55L316.57,411,354,396.7l26.89-26.89,18.39-32V318.4l5.1-7.49,1.71,22.81,12.25-24.51,9.53,13.62V293.89l2.05-4.08,18.72,17.7a132.72,132.72,0,0,1-10.21-46.64l39.15,22.47L448,240.79l20.42-4.09A134.73,134.73,0,0,1,451,232.11a129.26,129.26,0,0,1-22-9.71,124.79,124.79,0,0,1-17.54-11.91l-18-3.75L351,203.34l-65.36,8.85-8.51,35.41s-6.81-1.71-4.09,18l2.72,19.74s3.41,8.41,4.12,11.24c.53,2.08-.39,1.17-5.14-8.17l-11.23-22.13-14.64,31,2-30.3Z" transform="translate(-29.95 -29.95)"/><line class="cls-1" x1="244.75" y1="258.5" x2="245.77" y2="255.43"/><polyline class="cls-1" points="237.26 238.41 247.13 217.65 250.86 202.16"/><path class="cls-1" d="M504.66,659.77a700.52,700.52,0,0,0-20.23-126.6q-3.66-14.28-7.74-27.8l-40.46-26.63" transform="translate(-29.95 -29.95)"/><polyline class="cls-1" points="291.39 409.48 261.77 448.8 249.52 444.2 225.01 439.09 203.05 432.96 180.07 428.37 175.48 423.77 165.26 415.6 154.03 399.26 161.18 383.94 132.07 390.58 116.75 398.24 103.48 408.45 103.48 414.07 89.18 420.2 88.16 428.37 92.24 435.01 36.07 451.35 39.13 459.01 23.3 477.39 15.13 497.82 0.05 533.05 0.05 634.28"/><path class="cls-1" d="M316.57,411a48.48,48.48,0,0,0-12.08,41.19" transform="translate(-29.95 -29.95)"/><path class="cls-1" d="M264.15,386.83" transform="translate(-29.95 -29.95)"/><path class="cls-1" d="M435.72,227" transform="translate(-29.95 -29.95)"/><path class="cls-1" d="M489.34,203.34,497,191.26" transform="translate(-29.95 -29.95)"/><path class="cls-1" d="M490.06,214.23l14.6-16.93" transform="translate(-29.95 -29.95)"/><path class="cls-1" d="M493.67,217.85l18.14-18.42" transform="translate(-29.95 -29.95)"/><path class="cls-1" d="M348.91,205.77,362.19,227s8.68,10.21,7.66,31.66l-1,21.45s-1,24.34,5.62,5.27l6.64-19.06,15.31,22.13,2.05-7.83-11.24-20.94-2.81-24V222.4s14.05,7.66,14.05,29.62v22l8.17-5.62L402,304.11,405.45,325" transform="translate(-29.95 -29.95)"/><path class="cls-1" d="M188.57,376.62l-9.7-5.11v10.21l-11.23-16.85-8.17,4.6L162,351.09l-11.74,7.14,6.63-15.32-3.06-13.78-16.34,11.23s9.7-13.79,9.7-20.93v-7.15L135,315.34,145.17,299,183,250.23l25.53-14.55,26-11.23,51.07-12.26" transform="translate(-29.95 -29.95)"/><path class="cls-2" d="M260.07,273.5a91.41,91.41,0,0,1,34.21-.54,81.41,81.41,0,0,1,23.49,7.66,93,93,0,0,0-29.58-8.51C272.06,270.28,260.07,273.46,260.07,273.5Z" transform="translate(-29.95 -29.95)"/><path class="cls-2" d="M238.62,307.17s17.33-13,33.19-11.23c7.57.84,18,5.43,20.93,7.37l.48.33c3.14,2.13,6.9,5.2,6.67,5.57-.44.74-14.9-13.1-32.71-13.41C250.58,295.52,238.6,307.13,238.62,307.17Z" transform="translate(-29.95 -29.95)"/><path class="cls-1" d="M356.06,300A27.84,27.84,0,0,1,396.4,297" transform="translate(-29.95 -29.95)"/><path class="cls-2" d="M356.06,300c-.15-.2,1.33-1.68,2.79-2.91.88-.74,7.86-6.5,16.62-7.3,11.62-1.06,21,7.1,20.93,7.15s-9.39-8.54-20.93-7.15C364.73,291.1,356.44,300.5,356.06,300Z" transform="translate(-29.95 -29.95)"/><path class="cls-2" d="M244.23,333.13a43.83,43.83,0,0,0,20.43,6.69,40.34,40.34,0,0,0,18.89-3.34,43.94,43.94,0,0,1-21.17,3.14A40.5,40.5,0,0,1,244.23,333.13Z" transform="translate(-29.95 -29.95)"/><polyline class="cls-1" points="308.59 263.92 304.5 278.26 312.67 304.82 310.63 311.96 300.42 318.6 293.27 316.05"/><path class="cls-2" d="M356.06,361.81A97.87,97.87,0,0,1,283.55,373a97.88,97.88,0,0,0,72.51-11.23Z" transform="translate(-29.95 -29.95)"/><path class="cls-1" d="M370.62,337.83c17.61-2.06,23.23-6.66,23.23-6.66" transform="translate(-29.95 -29.95)"/><line class="cls-1" x1="347.82" y1="304.55" x2="348.58" y2="309.95"/><line class="cls-1" x1="357.26" y1="301.22" x2="357.26" y2="307.88"/><circle class="cls-2" cx="239.31" cy="295.86" r="5.91"/><circle class="cls-2" cx="341.9" cy="284.03" r="5.91"/><path class="cls-1" d="M192.15,368.72s12.25,8.92,11.23,13-5.58,16.85-5.58,16.85l-6.67,15.32" transform="translate(-29.95 -29.95)"/><polyline class="cls-3" points="280.22 612.97 280.22 504.6 280.22 625.22 416.5 625.22 415.48 605.05 417.52 523.35 403.73 489.13 411.39 464.11 411.9 453.9 406.28 453.9 406.28 448.8 379.73 439.09 357.26 427.23 287.82 390.58 352.16 422.24 346.03 430.41 326.11 458.5 311.31 474.71 304.67 491.18 265.6 512.62 230.12 504.2 180.33 490.41 113.18 470.5 95.56 436.8"/><polyline class="cls-1" points="42.71 458.5 46.54 462.84 42.71 467.43 46.54 471.52 42.71 497.82 51.9 497.82 42.71 526.92 56.5 520.28 42.71 553.22 49.6 557.05 49.6 629.82 265.6 624.45 265.6 512.62 265.6 616.03"/><polyline class="cls-1" points="280.22 523.35 265.6 533.05 280.22 544.16 265.6 558.78 280.22 571.6 265.6 582.33 280.22 596.88 265.6 605.05"/><path class="cls-1" d="M173.43,333v-5.78l1.36-1.45a2.25,2.25,0,0,1,.94-1.49,2.56,2.56,0,0,1,3.14.72l2.93,2.51c-.11.46-.92,4.13-1.23,5.49" transform="translate(-29.95 -29.95)"/><polyline class="cls-1" points="170.71 324.54 163.9 321.31 160.33 315.52 161.18 309.95 159.31 305.13 155.22 301.77 151.26 300.23"/><path class="cls-1" d="M187.72,336.79s-6.4,5.3-5.92,5.54l.48.24a5.83,5.83,0,0,0-.17,3.41c.32,1.21,1,2,1,3.57a5.07,5.07,0,0,1-.17,1.19l6.13,4.94,13.44,3.75" transform="translate(-29.95 -29.95)"/><path class="cls-3" d="M153,236.25q-1.85-5.52,36.7-36L214,181.61l19.69-8.7L269.1,160.3l31.32-7.41,34-5,22.94,1.57,46.85,10,47.66,8.33,2.7,7.83h0l-48,1.9-16-.46,64-1.44-87.06,9.33-75.3,1.83h0l-3.59,1.5,3.59-1.5-25.89,7.41-17.47,9-22.68,8.63-15,3.9Q155.15,242.64,153,236.25Z" transform="translate(-29.95 -29.95)"/><path class="cls-4" d="M532.74,147.85" transform="translate(-29.95 -29.95)"/><path class="cls-4" d="M604.23,209.64" transform="translate(-29.95 -29.95)"/><path class="cls-4" d="M539.89,203.65c-.13-.21-.28-.41-.43-.61l-13-9L511,187.26c-4.73-1.55-9.55-2.84-14.37-4l-1.3-.34-17.75-3-5.82-.28a4.92,4.92,0,0,1-2.31-.11L438.28,178l-33.65,1.74-36.31,1.83-38.81.51-40.85,6.14-67.77,17.57-64,23.78-33.86,19L87.14,271.42,54.79,294.87,45.6,314,37.43,332.7l9.19,10.21H80.24l23.54-1.2,29.13-7.21,6.64-6,4.6-11.16L135,319.89h-5.62L135,307.17,146.75,297l10.16-13.12,12-15.48,12.3-13.27,13.49-13.6,28-11.94L254,219.77l26.77-5.54,31-5.59,26.87-2.87,27.24-1.23,27.57,2.2,20.19,5.45L438.16,227l18.44,6.85,11.8,2.85,9.2-.51L451,241.49l14.67,24.77,31.65-21.42L527,224.2l12.85-12Z" transform="translate(-29.95 -29.95)"/><path class="cls-4" d="M467.41,178.2l-3.05-2.76c-4.85-1.37-9.21-5.15-12.74-8.36-5.05-4.59-9.45-9.81-14-14.88-6.68-7.47-15.35-13.36-23.82-18.62-7.15-4.44-14.89-7.64-21.92-12.19a113.68,113.68,0,0,1-15-6.15c-5-1.77-10.14-3.29-15-5.57-2.34-1.11-4.56-2.41-6.79-3.66l-13.57-5.14-44.25,4.78-12.79,3.76-38.24,13.44L195,148.21l-11.28,6.57-10,9.47-11.23,10.61-14.31,13.51-6.47,8.31q-3.42,13.59-6.83,27.19a40,40,0,0,1-1.71,10.79,39.32,39.32,0,0,1-2.62,6.42l-.36,1.44h0c1.28,1.65,18.43-8.31,75.59-48.72l16.6-11L239,175.68l15.34-6.13,17.51-5.87,14.68-7.4,15.58.25,14.08,1.79,14.08,2,11.32-.25,13.58,1.78,24.64,3.58,20.62.76,22.12,2.05,15.09,1.78a24.65,24.65,0,0,0,5.74,5.93c10.23,7.43,23,4.12,25.41,3.44l-.91-.83A4.28,4.28,0,0,1,467.41,178.2Z" transform="translate(-29.95 -29.95)"/><path class="cls-4" d="M129.34,245.89l.85-3.37a.36.36,0,0,1,0-.09Z" transform="translate(-29.95 -29.95)"/><path class="cls-4" d="M134.88,223.87c0-.6,0-1.18,0-1.72q-2.26,9.65-4.51,19.3c.05-.12.11-.24.17-.37Q132.71,232.47,134.88,223.87Z" transform="translate(-29.95 -29.95)"/><path class="cls-2" d="M177.61,259,165.94,270.4l-3.75,5.7-6.47,9.28-7.07,9.13-9.23,8.79L130.2,318l16.16-4.14s2.35,7.76.32,9l-2,1.23-.73,5.59-9,12.72L150.28,333l3.62-1.32,1.48,9-4.61,16.39,9-4.62-.06,15.37,7.95-3,10,15.49,1.26-7.15,8.76,2.91-5.83-10.4-.59-1.7-4.38-10.55-3.4-7.32-3.92-3.82-2.2-12.15L167,324l2.55-4.37,10.11,2.2,5.21,1.3,10.72,14.66L200.66,350l3.91,7.19-.68-22.47,1.54-14.85,5.77,8.65,2.12-24,8.29-33,10-21.35,10.89-16.08,4.71,17.16,3.09,13.37-3.71,41.47,16.72-37.79,16,26.51L273,251.59l9.7-35.48,21.07-6,22.14-3h23.86L362.19,227l7,18.4v44.32l1.42,2.94,10.81-24.3,14.38,19.23,2.64-7.82L388.19,261.5l-3.79-25.82V222.4l12.28,17,1.26,32,8.68-3.06-4.51,35.06,3.49,32.35,11.81-24.65L429.09,324V294.87l.85-5.06,19.91,17.36-10.79-37.42.39-8.3,39,22.06-27.83-38.92-2.64-3.8,18.36-3.68-50.87-22.88-34.73-8.51H351l-26.9.05-18.38,1.14-8.85.69-24.34,3.23-15.83,5.45-22.81,4.25-19.4,7-21.11,12.26-15.15,18.38" transform="translate(-29.95 -29.95)"/><path class="cls-2" d="M358.62,280.62" transform="translate(-29.95 -29.95)"/><path class="cls-2" d="M353.13,275.42a91.42,91.42,0,0,1,33.4-7.37,81,81,0,0,1,24.55,2.8,92.82,92.82,0,0,0-30.68-2.42C364.23,269.87,353.12,275.39,353.13,275.42Z" transform="translate(-29.95 -29.95)"/><path class="cls-2" d="M582.79,349" transform="translate(-29.95 -29.95)"/><path class="cls-2" d="M474.53,367.94" transform="translate(-29.95 -29.95)"/><path class="cls-2" d="M362.62,271.85" transform="translate(-29.95 -29.95)"/><path class="cls-2" d="M489.34,441" transform="translate(-29.95 -29.95)"/><line class="cls-2" x1="0.05" y1="0.05" x2="0.05" y2="0.05"/><path class="cls-2" d="M562.87,373.55" transform="translate(-29.95 -29.95)"/><path class="cls-1" d="M268.86,339.79" transform="translate(-29.95 -29.95)"/><path class="cls-2" d="M356.23,327.92s7.86,4.93,17.3,3.79a25,25,0,0,0,13.94-6.53,27,27,0,0,1-15.75,6.68A28,28,0,0,1,356.23,327.92Z" transform="translate(-29.95 -29.95)"/><path class="cls-4" d="M498.53,97.55" transform="translate(-29.95 -29.95)"/><path class="cls-1" d="M97.17,178" transform="translate(-29.95 -29.95)"/><path class="cls-1" d="M143.13,500.45" transform="translate(-29.95 -29.95)"/><polygon class="cls-3" points="92.24 435.01 113.18 470.5 265.6 512.62 265.6 620.62 49.6 629.82 49.6 557.05 42.71 553.22 56.5 520.28 42.71 526.92 51.9 497.82 42.71 497.82 39.13 459.01 36.07 451.35 92.24 435.01"/><polyline class="cls-3" points="265.6 605.05 280.22 618.33 265.6 624.45 273.82 605.05"/></svg>